<svg width="500" height="500" viewBox="0 0 500 500" fill="none" xmlns="http://www.w3.org/2000/svg">
<path d="M56.2899 322.515C65.6409 302.834 81.8279 304.545 89.7939 303.31C116.423 299.184 143.579 282.957 150.365 256.878C152.618 248.219 152.479 239.144 153.454 230.251C154.997 216.179 159.502 202.214 167.996 190.889C176.489 179.564 189.218 171.092 203.264 169.33C235.263 165.314 264.961 188.477 297.07 185.457C324.635 182.864 350.056 143.626 392.223 151.258C427.75 157.689 455.694 191.281 435.275 262.546C429.643 282.201 434.808 296.282 440.796 304.209C458.262 327.33 447.826 346.636 436.204 373.179C430.687 385.778 427.865 397.595 436.46 408.333C416.413 413.151 92.2069 413.739 68.3789 412.141C68.3789 412.141 36.9999 363.116 56.2899 322.515Z" fill="#F2F0FF"/>
<path d="M73.777 191.307C104.53 243.049 126.089 300.049 137.184 359.217C140.427 376.513 142.739 393.963 144.188 411.5C144.346 413.41 147.347 413.427 147.188 411.5C142.175 350.818 126.464 291.223 100.798 235.999C93.45 220.188 85.275 204.78 76.367 189.793C75.381 188.134 72.787 189.641 73.777 191.307Z" fill="#D2BFFF"/>
<path d="M158.379 369.031C161.606 364.362 164.863 359.655 168.98 355.748C177.255 347.893 188.555 343.68 196.406 335.402C195.114 347.4 189.178 363.28 181.613 372.682C174.049 382.084 162.237 395.396 145.08 404.588C144.614 392.925 152.111 378.103 158.379 369.031Z" fill="#D2BFFF"/>
<path d="M111.719 374.767C98.728 370.003 80.912 368.189 68.474 362.125C75.389 374.411 83.618 382.24 96.306 390.565C110.515 399.888 130.866 405.42 145.266 403.432C136.603 389.441 127.418 380.524 111.719 374.767Z" fill="#D2BFFF"/>
<path d="M152.63 322.22C159.696 312.351 166.788 302.554 175.142 293.749C175.449 302.982 173.692 314.031 170.833 324.127C168.394 332.74 165.532 340.846 161.612 347.077C159.623 350.239 142.803 369.365 139.955 366.185C137.673 363.636 144.255 333.917 152.63 322.22Z" fill="#D2BFFF"/>
<path d="M99.0169 333.509C89.5259 330.983 78.5409 330.063 64.3409 323.796C68.0339 331.743 73.0029 337.134 75.1429 339.48C88.9049 354.562 125.269 369.898 139.529 364.621C139.529 364.621 133.287 355.696 127.546 349.805C119.938 341.998 109.488 336.296 99.0169 333.509Z" fill="#D2BFFF"/>
<path d="M160.223 252.621C159.553 253.084 158.74 273.166 158.66 274.982C157.686 296.904 150.242 309.526 143 318.702C137.08 326.204 131.534 326.692 131.534 326.692C131.593 316.779 134.251 299.245 137.172 289.824C140.928 277.71 149.613 259.956 160.223 252.621Z" fill="#D2BFFF"/>
<path d="M96.705 301.029C83.727 295.195 63.763 291.395 50.026 287.688C59.418 299.966 72.216 311.196 86.335 317.49C99.608 323.407 125.226 326.155 130.693 323.437C122.493 313.706 110.697 307.32 96.705 301.029Z" fill="#D2BFFF"/>
<path d="M133.751 218.881C136.703 212.85 140.592 206.516 146.976 204.436C149.453 221.336 147.034 238.876 140.373 254.584C137.109 262.283 127.083 278.732 119.899 287.562C116.524 281.8 118.131 269.293 119.394 263.098C122.624 247.251 126.613 233.464 133.751 218.881Z" fill="#D2BFFF"/>
<path d="M85.3449 261.098C71.3649 254.078 54.3219 253.236 41.4869 244.293C46.3499 253.496 47.3889 257.432 55.2079 264.304C62.2079 270.456 71.2699 275.759 79.9919 279.041C86.6209 281.536 113.101 287.532 118.753 284.758C116.154 280.124 104.537 270.735 85.3449 261.098Z" fill="#D2BFFF"/>
<path d="M126.041 173.805C130.952 186.717 128.634 201.354 123.696 214.256C118.758 227.157 110.898 237.048 105.29 249.672C104.516 245.404 105.023 240.257 105.832 234.512C106.851 227.27 108.407 219.68 109.824 212.5C112.551 198.672 117.287 185.027 126.041 173.805Z" fill="#D2BFFF"/>
<path d="M69.566 222.085C58.328 216.902 47 211.917 35.587 207.133C40.69 217.101 47.208 226.631 56.274 233.207C63.392 238.37 71.7 241.406 80.08 243.828C83.722 244.88 105.686 250.534 104.059 246.842C103.291 245.1 74.374 224.302 69.566 222.085Z" fill="#D2BFFF"/>
<path d="M105.05 148.633C107.626 160.33 107.607 175.061 105 186.752C103.845 191.929 96.631 212.971 88.618 214.735C88.618 214.735 88.732 201.706 88.438 197.37C87.314 180.81 95.702 161.832 105.05 148.633Z" fill="#D2BFFF"/>
<path d="M25.042 181.976C34.327 192.7 46.625 201.652 59.676 207.21C69.879 211.556 80.49 213.861 87.124 213.081C81.978 203.589 68.802 195.699 61.569 191.975C50.264 186.153 37.744 182.68 25.042 181.976Z" fill="#D2BFFF"/>
<path d="M71.985 154.219C66.788 143.883 59.416 134.826 52.103 125.861C49.559 133.627 50.565 149.521 52.887 157.356C54.65 163.306 68.489 193.696 75.315 192.809C86.084 191.408 73.972 158.17 71.985 154.219Z" fill="#D2BFFF"/>
<path d="M270.44 342.813C269.519 333.942 272.247 325.635 275.115 317.365C277.783 309.673 280.735 302.077 283.969 294.606C290.102 280.436 297.219 266.691 305.233 253.493C321.501 226.701 341.484 202.312 364.466 181.007C365.885 179.692 363.76 177.574 362.345 178.886C338.78 200.731 318.333 225.844 301.787 253.396C293.552 267.108 286.299 281.4 280.079 296.136C277.026 303.368 274.218 310.704 271.684 318.134C268.949 326.153 266.552 334.256 267.441 342.816C267.638 344.714 270.64 344.734 270.44 342.813Z" fill="#D2BFFF"/>
<path d="M246.501 302.996C242.124 298.914 237.305 295.101 231.647 293.149C225.989 291.198 218.299 290.238 214.437 294.81C200.527 311.276 242.712 330.03 261.083 334.652C265.041 335.648 266.364 336.401 269.575 337.529C268.702 332.347 266.942 328.547 263.718 323.21C259.17 315.682 252.915 308.978 246.501 302.996Z" fill="#D2BFFF"/>
<path d="M259.41 269.224C255.663 264.557 251.441 260.092 246.121 257.35C240.801 254.608 233.328 252.556 228.85 256.527C212.724 270.829 251.784 295.436 269.303 302.644C273.078 304.197 274.279 305.133 277.294 306.709C277.173 301.455 275.976 297.442 273.55 291.698C270.129 283.595 264.901 276.064 259.41 269.224Z" fill="#D2BFFF"/>
<path d="M277.933 237.263C274.851 232.132 271.27 227.139 266.368 223.703C261.467 220.268 254.339 217.225 249.366 220.556C231.456 232.55 266.837 262.205 283.223 271.712C286.753 273.76 287.817 274.85 290.592 276.818C291.182 271.596 290.537 267.458 288.909 261.439C286.614 252.95 282.45 244.782 277.933 237.263Z" fill="#D2BFFF"/>
<path d="M299.776 205.743C297.207 200.337 294.128 195.019 289.584 191.124C285.04 187.229 278.241 183.508 272.968 186.34C253.978 196.538 286.31 229.489 301.695 240.543C305.01 242.925 305.963 244.112 308.534 246.341C309.628 241.201 309.388 237.02 308.353 230.871C306.892 222.199 303.542 213.665 299.776 205.743Z" fill="#D2BFFF"/>
<path d="M325.461 177.667C323.551 172.33 321.153 167.026 317.239 162.926C313.325 158.825 307.27 154.676 302.033 156.846C283.172 164.66 310.524 198.772 323.977 210.645C326.876 213.203 327.662 214.412 329.873 216.756C331.39 212.015 331.56 208.053 331.166 202.16C330.61 193.849 328.26 185.489 325.461 177.667Z" fill="#D2BFFF"/>
<path d="M349.87 159.148C348.795 154.208 347.284 149.242 344.294 145.164C341.304 141.087 336.427 136.721 331.545 138.037C313.965 142.778 334.232 176.095 344.764 188.143C347.033 190.739 347.589 191.899 349.276 194.226C351.163 190.208 351.769 186.723 352.099 181.466C352.562 174.052 351.445 166.389 349.87 159.148Z" fill="#D2BFFF"/>
<path d="M308.739 315.811C315.065 314.2 321.673 313.078 328.108 314.178C334.543 315.278 342.402 318.39 343.7 324.787C348.374 347.828 298.195 343.656 278.199 338.449C273.891 337.327 272.23 337.354 268.569 336.75C272.12 332.25 275.795 329.538 281.677 326.123C289.971 321.306 299.467 318.171 308.739 315.811Z" fill="#D2BFFF"/>
<path d="M317.275 282.834C323.345 281.289 329.686 280.212 335.861 281.267C342.036 282.322 349.577 285.308 350.822 291.447C355.307 313.556 307.157 309.553 287.97 304.556C283.836 303.479 282.243 303.506 278.729 302.926C282.136 298.608 285.663 296.006 291.307 292.729C299.267 288.107 308.379 285.099 317.275 282.834Z" fill="#D2BFFF"/>
<path d="M332.968 249.423C339.038 247.878 345.379 246.801 351.554 247.856C357.729 248.911 365.27 251.897 366.515 258.036C371 280.145 322.85 276.142 303.664 271.145C299.53 270.068 297.937 270.095 294.423 269.515C297.83 265.197 301.357 262.595 307.001 259.318C314.96 254.696 324.072 251.688 332.968 249.423Z" fill="#D2BFFF"/>
<path d="M355.933 219.594C361.945 218.876 368.156 218.642 373.941 220.429C379.726 222.216 386.576 226.027 386.998 232.066C388.516 253.817 342.877 243.926 325.119 236.725C321.293 235.173 319.763 234.998 316.468 234.001C320.276 230.292 323.983 228.242 329.803 225.81C338.013 222.382 347.123 220.645 355.933 219.594Z" fill="#D2BFFF"/>
<path d="M369.64 192.969C374.869 191.949 380.305 191.341 385.497 192.535C390.689 193.728 396.948 196.628 397.71 201.901C400.452 220.891 359.76 215.17 343.709 210.001C340.251 208.887 338.896 208.833 335.941 208.171C339.043 204.669 342.163 202.629 347.113 200.119C354.095 196.578 361.977 194.464 369.64 192.969Z" fill="#D2BFFF"/>
<path d="M378.747 158.572C382.807 155.405 387.225 152.502 392.222 151.258C397.219 150.014 403.881 149.774 406.845 153.984C417.519 169.148 379.948 182.026 363.854 184.597C360.386 185.151 359.196 185.697 356.359 186.42C357.499 182.045 359.295 178.922 362.462 174.592C366.93 168.486 372.797 163.214 378.747 158.572Z" fill="#D2BFFF"/>
<path d="M377.307 374.096C376.71 362.166 379.517 351.593 384.218 340.611C388.143 331.441 393.302 320.659 398.58 312.194C414.913 285.997 418.827 254.74 406.348 226.504C404.145 221.52 401.757 215.011 405.706 211.255C407.237 209.799 409.398 209.217 411.493 208.94C422.304 207.511 433.166 213.031 440.51 221.093C447.854 229.155 464.282 264.827 451.535 292.929C442.653 312.51 430.182 324.202 423.702 341.776C417.221 359.35 414.566 377.723 423.819 394.009C425.462 396.9 427.485 399.873 427.308 403.194C427.016 408.68 420.932 411.995 415.476 412.64C392.997 415.298 378.288 393.699 377.307 374.096Z" fill="#FAD87F"/>
<path d="M421.241 225.102C430.175 240.706 435.83 260.48 431.393 278.365C427.424 294.364 416.828 307.822 409.844 322.531C396.912 349.766 391.945 382.251 407.364 409.587C407.996 410.708 409.725 409.701 409.091 408.578C391.359 377.14 401.443 340.518 418.125 311.054C425.47 298.082 433.73 285.003 434.755 269.726C435.817 253.905 430.76 237.703 422.967 224.093C422.328 222.975 420.599 223.982 421.241 225.102Z" fill="white"/>
<path d="M416.563 241.456C421.494 246.179 427.158 250.019 432.089 254.742C432.574 255.207 433.3 255.08 433.66 254.54C437.552 248.685 440.559 242.702 443.237 236.218C443.728 235.029 441.794 234.511 441.308 235.686C438.694 242.015 435.725 247.825 431.933 253.53C432.456 253.463 432.98 253.395 433.504 253.328C428.573 248.605 422.909 244.765 417.978 240.042C417.048 239.151 415.632 240.564 416.563 241.456Z" fill="white"/>
<path d="M417.909 272.046C421.964 276.789 425.945 281.547 428.923 287.059C429.159 287.496 429.868 287.735 430.291 287.418C436.422 282.82 441.946 277.623 447.819 272.726C448.808 271.901 447.387 270.493 446.405 271.312C440.661 276.101 435.281 281.192 429.282 285.691C429.738 285.811 430.194 285.93 430.65 286.05C427.589 280.385 423.489 275.506 419.323 270.633C418.485 269.652 417.076 271.072 417.909 272.046Z" fill="white"/>
<path d="M407.568 301.403C410.072 305.597 412.621 309.763 415.214 313.903C415.428 314.245 415.93 314.527 416.343 314.363C422.762 311.809 429.208 309.965 436.04 308.928C437.308 308.735 436.769 306.808 435.508 306.999C430.463 307.765 425.537 308.88 420.716 310.569C417.544 311.679 416.429 312.097 414.519 309.008C412.754 306.151 411.016 303.278 409.294 300.395C408.636 299.29 406.906 300.294 407.568 301.403Z" fill="white"/>
<path d="M390.132 334.815C394.299 338.21 398.258 341.864 402.067 345.656C402.372 345.96 402.906 346.048 403.279 345.812C408.323 342.622 413.863 339.65 419.725 338.38C420.982 338.108 420.45 336.179 419.193 336.452C413.788 337.623 407.46 340.241 403.03 343.614C401.836 344.523 403.53 344.216 403.104 343.868C402.178 343.113 401.356 342.161 400.49 341.337C397.601 338.587 394.639 335.92 391.546 333.4C390.557 332.595 389.133 334.001 390.132 334.815Z" fill="white"/>
<path d="M381.166 369.615C386.718 373.823 392.485 377.747 397.748 382.323C398.128 382.654 398.795 382.759 399.162 382.323C403.577 377.07 408.472 372.4 413.962 368.276C414.979 367.512 413.983 365.775 412.953 366.549C410.583 368.329 408.27 370.173 406.074 372.167C404.457 373.635 400.239 379.474 398.371 379.691C396.906 379.861 392.926 375.846 391.495 374.778C388.398 372.468 385.256 370.22 382.176 367.886C381.15 367.111 380.153 368.847 381.166 369.615Z" fill="white"/>
<path d="M246.032 288.874C241.105 262.553 233.357 234.584 212.492 217.8C207.166 213.516 200.903 210.048 194.095 209.445C190.033 209.086 185.925 209.763 182.05 211.034C174.724 213.437 167.661 218.656 165.921 226.168C163.874 235.007 169.733 243.769 176.476 249.84C183.219 255.911 189.227 262.63 194.03 270.327C198.342 277.238 199.966 285.229 201.191 293.282C204.079 312.269 207.887 330.602 215.573 348.203C223.259 365.804 236.704 381.276 252.852 391.673C261.258 397.085 271.836 401.113 281.958 399.172C291.176 397.404 296.092 392.273 290.022 384.194C283.895 376.039 275.06 370.487 269.141 362.017C262.199 352.084 257.696 340.697 254.424 329.089C250.706 315.894 248.551 302.329 246.032 288.874Z" fill="#FAD87F"/>
<path d="M179.404 230.156C194.442 237.886 206.61 250.527 213.43 266.048C221.222 283.784 222.581 303.864 227.435 322.47C231.491 338.016 236.831 355.627 247.223 368.205C255.984 378.808 268.681 389.183 282.102 392.971C283.343 393.321 283.873 391.392 282.634 391.043C268.084 386.937 253.632 374.789 245.328 362.318C240.102 354.471 237.066 345.524 233.984 336.687C230.848 327.694 228.396 318.623 226.45 309.299C222.914 292.365 220.683 274.339 212.153 259.005C204.861 245.897 193.736 235.275 180.415 228.428C179.27 227.842 178.257 229.567 179.404 230.156Z" fill="white"/>
<path d="M234.418 370.689C241.772 372.692 249.048 375.004 256.316 377.297C257.114 377.549 257.655 376.771 257.546 376.067C256.536 369.566 255.271 362.105 256.643 355.595C256.908 354.339 254.98 353.803 254.714 355.063C253.258 361.974 254.544 369.693 255.617 376.598C256.027 376.188 256.437 375.778 256.847 375.368C249.579 373.075 242.303 370.763 234.949 368.76C233.706 368.421 233.176 370.35 234.418 370.689Z" fill="white"/>
<path d="M215.141 336.076C222.683 341.893 230.348 347.54 238.14 353.018C238.802 353.484 239.605 352.848 239.645 352.155C240.175 342.881 242.016 333.951 245.158 325.214C245.594 324.001 243.663 323.478 243.229 324.682C240.029 333.577 238.184 342.721 237.645 352.154C238.147 351.866 238.648 351.578 239.15 351.29C231.358 345.812 223.693 340.165 216.151 334.348C215.132 333.564 214.135 335.3 215.141 336.076Z" fill="white"/>
<path d="M207.027 300.021C213.094 305.058 219.458 309.736 225.824 314.385C226.236 314.686 226.976 314.478 227.192 314.026C231.131 305.819 234.824 297.495 238.919 289.363C239.496 288.216 237.772 287.203 237.192 288.354C233.097 296.486 229.404 304.81 225.465 313.017C225.921 312.897 226.377 312.778 226.833 312.658C220.605 308.109 214.376 303.535 208.441 298.607C207.458 297.79 206.036 299.198 207.027 300.021Z" fill="white"/>
<path d="M200.589 271.032C204.394 273.427 208.335 275.605 212.3 277.722C214.281 278.78 216.631 280.516 218.86 281.013C219.295 281.11 219.759 280.949 219.989 280.553C223.972 273.706 226.838 266.292 230.821 259.445C231.469 258.33 229.742 257.322 229.094 258.436C226.811 262.36 224.897 266.455 222.94 270.546C221.965 272.585 220.789 274.577 219.898 276.65C219.008 278.721 219.857 278.925 218.085 278.479C215.569 277.845 212.825 275.748 210.561 274.509C207.531 272.849 204.523 271.146 201.598 269.306C200.506 268.618 199.501 270.347 200.589 271.032Z" fill="white"/>
<path d="M182.931 246.605C190.796 248.588 198.588 250.884 206.373 253.159C206.99 253.339 207.65 252.838 207.639 252.195C207.489 243.78 207.406 235.283 206.506 226.909C206.37 225.643 204.369 225.629 204.506 226.909C205.405 235.283 205.489 243.779 205.639 252.195C206.061 251.874 206.483 251.552 206.905 251.231C199.12 248.956 191.328 246.66 183.463 244.677C182.215 244.361 181.682 246.29 182.931 246.605Z" fill="white"/>
<path d="M405.193 279.686C400.414 275.413 323.184 273.227 305.825 280.367C302.451 281.755 301.494 307 298.286 320.333C294.435 336.335 281.928 394.04 285.215 408.333C294.324 410.6 385.386 408.212 398.931 408.333C399.485 403.265 427.301 299.453 405.193 279.686Z" fill="#363C89"/>
<path d="M283.167 275.729C275.838 275.729 252.216 336.25 249 347C245.485 358.751 233.09 360.877 226.708 371.351C223.497 376.621 219.864 383.195 222.993 388.513C224.969 391.871 229.113 393.37 233.005 393.55C240.754 393.91 248.232 390.013 253.762 384.574C259.293 379.135 266.429 375.886 270 368.999C280.573 348.611 300.213 326.551 298.285 303.666C295.805 274.229 299.884 275.729 283.167 275.729Z" fill="#9354ED"/>
<path d="M370.16 321C365.353 344.379 354.703 347.716 351.747 371.4C349.774 387.204 356.833 393.569 361.33 408.848C327.799 409.26 292.764 408.033 260.106 409.314C261.094 387.182 270.967 398.733 277.596 377.745C279.106 372.963 281.027 354.604 282.31 348.604C278.317 345.848 274.112 339.206 275.34 329.499C276.208 322.633 280.869 318.332 283.31 308.999C285.337 301.249 283.167 285.621 283.167 275.728C283.167 275.728 290.01 273.166 310.934 269.799C320.724 268.223 360.881 269.038 370.214 275.088C372.118 276.322 374.319 300.775 370.16 321Z" fill="#8249DB"/>
<path d="M301.478 330.637C298.616 347.515 297.457 364.669 293.458 381.35C293.158 382.601 295.086 383.135 295.386 381.882C299.385 365.2 300.543 348.047 303.406 331.169C303.62 329.91 301.693 329.369 301.478 330.637Z" fill="#9354ED"/>
<path d="M311.404 347.044C318.048 355.523 329.008 351.218 336.851 347.154C337.994 346.562 336.984 344.835 335.842 345.427C328.759 349.097 318.89 353.379 312.818 345.63C312.026 344.617 310.619 346.041 311.404 347.044Z" fill="#9354ED"/>
<path d="M298.322 275.621C298.322 275.621 296.361 307 304.514 323.667C304.514 323.667 336.987 289 343.494 269C343.494 269 303.979 266.472 298.322 275.621Z" fill="#A3CED8"/>
<path d="M310.198 297.167C308.173 298.286 297.567 277.808 298.321 275.621C300.977 269.54 305.892 275.677 307.479 271.17C308.747 267.568 302.494 251.17 306.007 246.966C308.104 244.456 333.621 225.46 332.637 233.403C332.039 238.233 335.579 253.488 337.159 258.113C337.159 258.113 339 281.25 310.198 297.167Z" fill="#EAA27A"/>
<path d="M279.5 380.5C278.156 382.077 278.066 383.774 277.837 385.833C277.536 388.536 277.403 395.811 278.133 397.22C278.863 398.63 281.333 398.849 281.881 394.681C281.526 391.792 281.688 388.281 282.999 385.682C283.384 388.538 283.447 394.296 283.832 397.152C284.069 398.91 286.999 398.848 286.999 395.848C287.166 392.848 286.666 387.332 287.499 386.165C287.831 388.712 288.166 393.665 289.549 396.541C290.262 398.023 292.166 397.848 291.833 394.681C292.106 391.889 292.06 391.14 292.333 388.348C292.89 392.115 293.437 393.597 293.948 397.152C295 398.322 296.803 396.662 296.926 394.573C297.049 392.484 297.457 395.669 297.049 392.484C299.167 393.665 300.177 394.204 301.833 394.665C303.489 395.126 308.346 395.136 310 394.665C317.898 392.417 324.943 392.811 322.5 384.015C320.826 377.989 318.169 377.671 312.622 378.515C309.642 378.968 304.527 379.537 300.278 379.165C297.579 378.929 295.23 377.739 294 377.744C292.641 377.75 291.599 379 289.989 379.341C289.029 379.544 287.582 377.752 286.909 377.745C284.58 377.719 284.867 379.472 283.167 379.666C281.655 379.839 281.077 378.923 279.5 380.5Z" fill="#FFBB8E"/>
<path d="M307.55 377.746C309.217 376.666 319.386 377.615 322.816 376.492C334.5 372.667 361.5 364.5 362 362.167C362.785 358.503 350.606 316.781 350.5 307C350.167 276.333 370.214 275.088 370.214 275.088C386.833 282 392.732 381.166 390.028 383.404C379.108 392.444 340.41 393.936 325.833 395.833C322.833 396.223 312.828 399.265 310.5 397.333C307.722 395.029 304.52 379.708 307.55 377.746Z" fill="#9354ED"/>
<path d="M349.421 270.527C349.432 274.402 347.782 278.064 346.165 281.585C343.429 287.541 340.108 293.499 335.333 299.452C332.226 294.303 330.953 290.287 327.451 285.705C322.491 291.184 316.267 295.512 309.403 298.254C306.268 294.261 304.3 288.922 300.833 284.333C299.506 288.299 296.548 293.409 294.399 296.996C292.5 287.698 292.59 276.27 298.285 268.68C300.986 265.08 303.46 263.467 307.925 262.903C309.633 268.577 305.782 274.442 305.825 280.367C305.86 285.182 308.164 291.387 310.667 295.5C318.918 292.991 324.959 281.066 325.834 279.667C326.734 278.227 335.334 272.5 337.16 258.114C341.292 258.113 349.4 263.098 349.421 270.527Z" fill="#C5E6EF"/>
<path d="M364.838 222.238C366.633 227.343 368.814 232.39 372.159 236.643C375.504 240.896 385.161 242.783 389.66 239.672C389.66 239.672 386.102 263.137 368.667 257.129C351.747 251.299 352.383 229.439 342.055 231.784C334.91 233.406 327.364 228.797 326.957 219.844C326.706 214.318 330.083 209.649 334.973 207.523C348.449 201.665 360.516 209.946 364.838 222.238Z" fill="#EA396B"/>
<path d="M297.403 232.165C298.751 235.892 299.341 240.113 297.821 243.773C296.301 247.433 292.178 250.184 288.357 249.135C283.444 247.786 281.84 241.695 281.445 236.616C281.196 233.41 281.119 230.037 282.542 227.154C287.292 217.532 295.176 226.008 297.403 232.165Z" fill="#363C89"/>
<path d="M331.667 246C327.718 254.063 318.5 261.843 309.615 263.128C306.094 263.637 302.29 263.29 299.355 261.279C297.392 259.934 295.962 257.953 294.691 255.941C289.027 246.97 285.742 236.512 285.26 225.914C284.88 217.55 286.82 208.136 293.765 203.461C299.043 199.909 305.873 199.973 312.232 200.165C315.507 200.264 318.906 200.394 321.822 201.889C324.854 203.444 326.985 206.281 328.994 209.035C336.279 219.027 337.083 234.942 331.667 246Z" fill="#FFBB8E"/>
<path d="M311.105 211.605C315.476 218.227 323.914 236.084 335.182 236.084C342.863 229.437 342.491 217.941 340.108 208.001C339.317 204.704 336.982 200.431 334.792 197.843C329.962 192.137 321.584 191.293 314.109 191.295C307.176 191.297 300.129 191.687 293.583 193.972C287.831 195.98 282.487 199.593 279.191 204.798C275.825 210.113 275.729 218.007 268.689 220.091C280.902 240.02 312.497 213.713 311.105 211.605Z" fill="#FE4571"/>
<path d="M340.871 229.075C341.501 232.988 340.938 239.644 338.305 242.606C335.627 245.619 331.812 246.739 328.822 244.063C326.077 241.606 324.093 236.946 324.173 229.601C324.208 226.386 325.516 219.255 331.072 218.261C336.623 217.267 339.83 222.611 340.871 229.075Z" fill="#363C89"/>
<path d="M337.183 222.806C337.119 213.589 335.085 203.052 328.167 196.167C321.136 189.169 311.667 188.855 304.399 189.744C298.007 190.525 296.758 193.021 296.758 193.021C310.574 192.053 320.293 193.587 326.209 200.092C331.738 206.172 333.129 215.049 333.182 222.806C333.2 225.379 337.201 225.385 337.183 222.806Z" fill="#363C89"/>
<path d="M334.218 239.774C331.847 248.592 325.196 253.817 316.15 254.502C314.875 254.599 314.864 256.599 316.15 256.502C326.097 255.748 333.533 250.028 336.146 240.306C336.481 239.061 334.553 238.53 334.218 239.774Z" fill="#363C89"/>
<path d="M312.959 259.23C315.416 259.23 317.407 257.239 317.407 254.782C317.407 252.326 315.416 250.334 312.959 250.334C310.502 250.334 308.511 252.326 308.511 254.782C308.511 257.239 310.502 259.23 312.959 259.23Z" fill="#8249DB"/>
<path d="M296.125 242.875C295.198 244.625 293.581 243.667 294.793 246.732C295.505 248.531 302.087 246.254 302.087 246.254C302.914 245.431 301.676 240.444 300.973 237.614C300.505 235.733 299.248 230.262 297.53 230.262C295.742 230.263 297.62 240.052 296.125 242.875Z" fill="#E89669"/>
<path d="M308.233 230.666C308.44 232.276 307.91 233.672 307.047 233.783C306.185 233.894 305.318 232.679 305.11 231.069C304.903 229.459 305.433 228.063 306.296 227.952C307.159 227.841 308.026 229.056 308.233 230.666Z" fill="#363C89"/>
<path d="M292.493 232.422C292.7 234.032 292.17 235.428 291.307 235.539C290.445 235.65 289.578 234.435 289.37 232.825C289.163 231.215 289.693 229.819 290.556 229.708C291.419 229.596 292.286 230.812 292.493 232.422Z" fill="#363C89"/>
<path d="M297.924 252.975C299.728 253.549 301.704 254.092 303.55 253.376C305.152 252.754 306.405 251.618 307.248 250.144C307.728 249.305 306.432 248.548 305.953 249.387C304.22 252.42 301.359 252.496 298.323 251.529C297.401 251.234 297.006 252.682 297.924 252.975Z" fill="#E89669"/>
<path d="M303.211 222.885C304.228 221.559 305.958 221.042 307.549 221.465C308.483 221.714 308.881 220.267 307.948 220.019C305.65 219.407 303.349 220.261 301.916 222.128C301.328 222.893 302.631 223.641 303.211 222.885Z" fill="#FE4571"/>
<path d="M339.961 229.972C340.355 232.423 340.003 236.592 338.353 238.447C336.675 240.334 334.286 241.036 332.413 239.359C330.694 237.82 329.451 234.902 329.501 230.301C329.523 228.287 330.342 223.821 333.822 223.198C337.301 222.576 339.31 225.923 339.961 229.972Z" fill="#8249DB"/>
<path d="M35.5869 417L456.08 417V399.667L35.5869 399.667V417Z" fill="#C5E6EF"/>
<path d="M445.609 417V455.57C388.33 473.77 280.386 478.78 167.673 455.67C102.22 442.25 65.944 445.38 46.058 451.8V417H445.609Z" fill="#D2BFFF"/>
<path d="M323.531 387.667H330.951C335.99 387.667 340.075 391.752 340.075 396.791C340.075 398.379 338.787 399.667 337.199 399.667H317.283C315.695 399.667 314.407 398.379 314.407 396.791C314.407 391.751 318.492 387.667 323.531 387.667Z" fill="#363C89"/>
<path d="M116.782 393.667H261.107L252.194 310.179C251.791 306.406 248.608 303.544 244.813 303.544H112.697C109.739 303.544 107.434 306.108 107.748 309.049L116.782 393.667Z" fill="#363C89"/>
<path d="M305.514 393.667H116.782V399.667H305.514V393.667Z" fill="#3956D6"/>
<path d="M305.513 393.667H261.106V399.667H305.513V393.667Z" fill="#363C89"/>
<path d="M196.413 348.968C196.413 352.081 188.483 354.605 178.702 354.605C168.92 354.605 160.991 352.081 160.991 348.968C160.991 345.855 168.921 343.33 178.702 343.33C188.483 343.33 196.413 345.854 196.413 348.968Z" fill="#C5E6EF"/>
<path d="M108.866 269.023C134.429 258.801 146.866 229.791 136.643 204.227C126.42 178.664 97.41 166.228 71.8466 176.45C46.2832 186.673 33.847 215.683 44.0696 241.247C54.2922 266.81 83.3025 279.246 108.866 269.023Z" fill="#FAD87F"/>
<path d="M112.145 195.299L53.657 228.883L85.321 234.115L81.878 258.89L97.656 237.43L119.364 247.96L112.145 195.299Z" fill="#8249DB"/>
<path d="M108.878 190.943L50.39 224.527L82.054 229.759L108.878 190.943Z" fill="white"/>
<path d="M108.878 190.943L94.3881 233.073L116.096 243.603L108.878 190.943Z" fill="white"/>
<path d="M82.054 229.759L78.611 254.533L94.388 233.073L108.878 190.943L82.054 229.759Z" fill="#C5E6EF"/>
<path d="M78.611 254.533L108.878 190.943L94.388 233.073L78.611 254.533Z" fill="#88B8BF"/>
<path d="M307.829 155.945C341.324 155.945 368.477 128.792 368.477 95.297C368.477 61.8021 341.324 34.649 307.829 34.649C274.334 34.649 247.181 61.8021 247.181 95.297C247.181 128.792 274.334 155.945 307.829 155.945Z" fill="#FAD87F"/>
<path d="M340.211 63.7581H281.649C279.877 63.7581 278.44 65.1951 278.44 66.9671V128.114C278.44 129.886 279.877 131.323 281.649 131.323H340.211C341.983 131.323 343.42 129.886 343.42 128.114V66.9671C343.419 65.1951 341.983 63.7581 340.211 63.7581Z" fill="#8249DB"/>
<path d="M337.11 60.6581H278.549C276.777 60.6581 275.34 62.0951 275.34 63.8671V125.014C275.34 126.786 276.777 128.223 278.549 128.223H337.11C338.882 128.223 340.319 126.786 340.319 125.014V63.8671C340.319 62.0941 338.882 60.6581 337.11 60.6581Z" fill="white"/>
<path d="M282.822 68.8591C281.718 68.8591 280.822 67.9631 280.822 66.8591V58.5911C280.822 57.4871 281.718 56.5911 282.822 56.5911C283.926 56.5911 284.822 57.4871 284.822 58.5911V66.8591C284.822 67.9631 283.927 68.8591 282.822 68.8591Z" fill="#8249DB"/>
<path d="M292.825 68.8591C291.721 68.8591 290.825 67.9631 290.825 66.8591V58.5911C290.825 57.4871 291.721 56.5911 292.825 56.5911C293.929 56.5911 294.825 57.4871 294.825 58.5911V66.8591C294.825 67.9631 293.93 68.8591 292.825 68.8591Z" fill="#8249DB"/>
<path d="M302.828 68.8591C301.724 68.8591 300.828 67.9631 300.828 66.8591V58.5911C300.828 57.4871 301.724 56.5911 302.828 56.5911C303.932 56.5911 304.828 57.4871 304.828 58.5911V66.8591C304.828 67.9631 303.933 68.8591 302.828 68.8591Z" fill="#8249DB"/>
<path d="M312.831 68.8591C311.727 68.8591 310.831 67.9631 310.831 66.8591V58.5911C310.831 57.4871 311.727 56.5911 312.831 56.5911C313.935 56.5911 314.831 57.4871 314.831 58.5911V66.8591C314.831 67.9631 313.935 68.8591 312.831 68.8591Z" fill="#8249DB"/>
<path d="M322.834 68.8591C321.729 68.8591 320.834 67.9631 320.834 66.8591V58.5911C320.834 57.4871 321.729 56.5911 322.834 56.5911C323.938 56.5911 324.834 57.4871 324.834 58.5911V66.8591C324.834 67.9631 323.938 68.8591 322.834 68.8591Z" fill="#8249DB"/>
<path d="M332.836 68.8591C331.732 68.8591 330.836 67.9631 330.836 66.8591V58.5911C330.836 57.4871 331.732 56.5911 332.836 56.5911C333.941 56.5911 334.836 57.4871 334.836 58.5911V66.8591C334.836 67.9631 333.94 68.8591 332.836 68.8591Z" fill="#8249DB"/>
<path d="M299.552 77.7101H292.721V84.5411H299.552V77.7101Z" fill="#C5E6EF"/>
<path d="M311.245 77.7101H304.414V84.5411H311.245V77.7101Z" fill="#C5E6EF"/>
<path d="M322.937 77.7101H316.106V84.5411H322.937V77.7101Z" fill="#C5E6EF"/>
<path d="M334.63 77.7101H327.799V84.5411H334.63V77.7101Z" fill="#C5E6EF"/>
<path d="M287.859 88.7811H281.028V95.6121H287.859V88.7811Z" fill="#FCAAA6"/>
<path d="M299.552 88.7811H292.721V95.6121H299.552V88.7811Z" fill="#C5E6EF"/>
<path d="M311.245 88.7811H304.414V95.6121H311.245V88.7811Z" fill="#C5E6EF"/>
<path d="M322.937 88.7811H316.106V95.6121H322.937V88.7811Z" fill="#C5E6EF"/>
<path d="M334.63 88.7811H327.799V95.6121H334.63V88.7811Z" fill="#C5E6EF"/>
<path d="M287.859 99.8511H281.028V106.682H287.859V99.8511Z" fill="#FCAAA6"/>
<path d="M299.552 99.8511H292.721V106.682H299.552V99.8511Z" fill="#C5E6EF"/>
<path d="M311.245 99.8511H304.414V106.682H311.245V99.8511Z" fill="#C5E6EF"/>
<path d="M322.937 99.8511H316.106V106.682H322.937V99.8511Z" fill="#C5E6EF"/>
<path d="M334.63 99.8511H327.799V106.682H334.63V99.8511Z" fill="#C5E6EF"/>
<path d="M287.859 110.921H281.028V117.752H287.859V110.921Z" fill="#FCAAA6"/>
<path d="M299.552 110.921H292.721V117.752H299.552V110.921Z" fill="#C5E6EF"/>
<path d="M311.245 110.921H304.414V117.752H311.245V110.921Z" fill="#C5E6EF"/>
<path d="M322.937 110.921H316.106V117.752H322.937V110.921Z" fill="#C5E6EF"/>
<path d="M218.967 177.138C240.54 155.566 240.54 120.589 218.967 99.0166C197.394 77.4439 162.418 77.4439 140.845 99.0166C119.273 120.589 119.273 155.566 140.845 177.138C162.418 198.711 197.394 198.711 218.967 177.138Z" fill="#C5E6EF"/>
<path d="M211.732 112.709C202.408 103.385 187.291 103.385 177.966 112.709C169.379 121.296 168.721 134.787 175.951 144.151L169.805 150.297L168.15 148.642L154.541 162.251C152.429 164.363 152.429 167.788 154.541 169.9C156.653 172.012 160.078 172.012 162.19 169.9L175.799 156.291L174.144 154.636L180.29 148.49C189.654 155.72 203.144 155.063 211.732 146.476C221.057 137.151 221.057 122.034 211.732 112.709Z" fill="white"/>
<path d="M181.758 140.564L177.419 136.225L164.676 148.969L169.015 153.307L181.758 140.564Z" fill="#8249DB"/>
<path d="M164.922 145.413L151.312 159.022C149.2 161.134 149.2 164.559 151.312 166.671C153.424 168.783 156.849 168.783 158.961 166.671L172.571 153.062L164.922 145.413Z" fill="#FE4571"/>
<path d="M191.621 150.24C204.807 150.24 215.497 139.55 215.497 126.364C215.497 113.178 204.807 102.488 191.621 102.488C178.435 102.488 167.745 113.178 167.745 126.364C167.745 139.55 178.435 150.24 191.621 150.24Z" fill="#8249DB"/>
<path d="M191.621 143.381C201.019 143.381 208.638 135.762 208.638 126.364C208.638 116.966 201.019 109.347 191.621 109.347C182.223 109.347 174.604 116.966 174.604 126.364C174.604 135.762 182.223 143.381 191.621 143.381Z" fill="white"/>
<path d="M199.904 136.017C198.848 137.073 197.135 137.073 196.079 136.017C195.023 134.961 195.023 133.248 196.079 132.192C197.135 131.136 198.847 131.136 199.904 132.192C200.96 133.249 200.96 134.961 199.904 136.017Z" fill="#C5E6EF"/>
<path d="M200.754 124.88C199.099 126.535 196.415 126.535 194.76 124.88C193.105 123.225 193.105 120.541 194.76 118.886C196.415 117.231 199.099 117.231 200.754 118.886C202.409 120.541 202.409 123.225 200.754 124.88Z" fill="#C5E6EF"/>
<path d="M465.369 156.773C470.894 132.902 456.022 109.072 432.151 103.547C408.28 98.0225 384.45 112.895 378.925 136.766C373.4 160.636 388.273 184.466 412.144 189.991C436.014 195.516 459.844 180.644 465.369 156.773Z" fill="#C5E6EF"/>
<path d="M438.717 120.847H408.965C406.964 120.847 405.341 122.469 405.341 124.471V172.532C405.341 174.533 406.963 176.156 408.965 176.156H438.717C440.718 176.156 442.341 174.534 442.341 172.532V124.47C442.341 122.469 440.719 120.847 438.717 120.847Z" fill="white"/>
<path d="M435.284 117.414H405.532C403.531 117.414 401.908 119.036 401.908 121.038V169.1C401.908 171.101 403.53 172.724 405.532 172.724H435.284C437.285 172.724 438.908 171.102 438.908 169.1V121.038C438.908 119.036 437.286 117.414 435.284 117.414Z" fill="#8249DB"/>
<path d="M435.666 124.852H405.151V165.285H435.666V124.852Z" fill="white"/>
<path d="M410.586 124.852L418.596 165.285H425.844L418.215 124.852H410.586Z" fill="#C5E6EF"/>
<path d="M420.885 124.852L428.895 165.285H431.565L423.937 124.852H420.885Z" fill="#C5E6EF"/>
<path d="M422.177 169.056C422.177 170.033 421.385 170.825 420.408 170.825C419.431 170.825 418.639 170.033 418.639 169.056C418.639 168.079 419.431 167.287 420.408 167.287C421.385 167.287 422.177 168.079 422.177 169.056Z" fill="white"/>
<path d="M423.46 122.419H417.356C416.803 122.419 416.356 121.971 416.356 121.419C416.356 120.867 416.803 120.419 417.356 120.419H423.46C424.013 120.419 424.46 120.867 424.46 121.419C424.46 121.971 424.013 122.419 423.46 122.419Z" fill="white"/>
<path d="M420.408 154.481C425.607 154.481 429.821 150.267 429.821 145.068C429.821 139.869 425.607 135.655 420.408 135.655C415.209 135.655 410.995 139.869 410.995 145.068C410.995 150.267 415.209 154.481 420.408 154.481Z" fill="#FE4571"/>
<path d="M425.155 147.266L424.415 146.526C424.088 146.199 423.558 146.199 423.232 146.526L422.806 146.952C422.639 147.119 422.368 147.119 422.201 146.952L418.525 143.276C418.358 143.109 418.358 142.838 418.525 142.671L418.951 142.245C419.278 141.918 419.278 141.388 418.951 141.062L418.211 140.322C417.884 139.995 417.354 139.995 417.028 140.322L416.041 141.309C415.209 142.141 415.209 143.489 416.041 144.321L421.157 149.437C421.989 150.269 423.337 150.269 424.169 149.437L425.156 148.45C425.482 148.123 425.482 147.593 425.155 147.266Z" fill="white"/>
</svg>
